<?xml version="1.0" encoding="UTF-8" standalone="no"?>
<!DOCTYPE svg PUBLIC "-//W3C//DTD SVG 1.1//EN"
 "http://www.w3.org/Graphics/SVG/1.1/DTD/svg11.dtd">
<!-- Generated by graphviz version 2.36.0 (20140111.2315)
 -->
<!-- Title: NanoCanvas::Paint Pages: 1 -->
<svg width="116pt" height="106pt"
 viewBox="0.00 0.00 116.00 106.00" xmlns="http://www.w3.org/2000/svg" xmlns:xlink="http://www.w3.org/1999/xlink">
<g id="graph0" class="graph" transform="scale(1 1) rotate(0) translate(4 102)">
<title>NanoCanvas::Paint</title>
<polygon fill="white" stroke="none" points="-4,4 -4,-102 112,-102 112,4 -4,4"/>
<!-- Node1 -->
<g id="node1" class="node"><title>Node1</title>
<polygon fill="#bfbfbf" stroke="black" points="0.5,-0.5 0.5,-19.5 107.5,-19.5 107.5,-0.5 0.5,-0.5"/>
<text text-anchor="middle" x="54" y="-7.5" font-family="FreeSans.ttf" font-size="10.00">NanoCanvas::Paint</text>
</g>
<!-- Node2 -->
<g id="node2" class="node"><title>Node2</title>
<g id="a_node2"><a xlink:href="struct_nano_canvas_1_1_color.html" target="_top" xlink:title="NanoCanvas::Color">
<polygon fill="white" stroke="black" points="0,-78.5 0,-97.5 108,-97.5 108,-78.5 0,-78.5"/>
<text text-anchor="middle" x="54" y="-85.5" font-family="FreeSans.ttf" font-size="10.00">NanoCanvas::Color</text>
</a>
</g>
</g>
<!-- Node2&#45;&gt;Node1 -->
<g id="edge1" class="edge"><title>Node2&#45;&gt;Node1</title>
<path fill="none" stroke="#9a32cd" stroke-dasharray="5,2" d="M54,-68.2239C54,-52.6974 54,-31.3582 54,-19.6165"/>
<polygon fill="#9a32cd" stroke="#9a32cd" points="50.5001,-68.2818 54,-78.2818 57.5001,-68.2819 50.5001,-68.2818"/>
<text text-anchor="middle" x="71" y="-52" font-family="FreeSans.ttf" font-size="10.00"> eColor</text>
<text text-anchor="middle" x="71" y="-41" font-family="FreeSans.ttf" font-size="10.00">sColor</text>
</g>
</g>
</svg>
